<?xml version="1.0" encoding="UTF-8" standalone="no"?>
<!-- Created with Inkscape (http://www.inkscape.org/) -->

<svg
   width="240mm"
   height="240mm"
   viewBox="0 0 240 240"
   version="1.1"
   id="svg5"
   xmlns:xlink="http://www.w3.org/1999/xlink"
   xmlns="http://www.w3.org/2000/svg"
   xmlns:svg="http://www.w3.org/2000/svg">
  <defs
     id="defs2">
    <linearGradient
       id="linearGradient9270">
      <stop
         style="stop-color:#454545;stop-opacity:1"
         offset="0"
         id="stop9266" />
      <stop
         style="stop-color:#141414;stop-opacity:1"
         offset="1"
         id="stop9268" />
    </linearGradient>
    <linearGradient
       xlink:href="#linearGradient9270"
       id="linearGradient14124"
       gradientUnits="userSpaceOnUse"
       x1="30.679108"
       y1="62.193192"
       x2="179.17139"
       y2="210.68547"
       gradientTransform="translate(214.99244,-30.641489)" />
    <filter
       style="color-interpolation-filters:sRGB"
       id="filter14868"
       x="-0.034285713"
       y="-0.034285735"
       width="1.0971429"
       height="1.0971429">
      <feFlood
         flood-opacity="0.498039"
         flood-color="rgb(0,0,0)"
         result="flood"
         id="feFlood14858" />
      <feComposite
         in="flood"
         in2="SourceGraphic"
         operator="in"
         result="composite1"
         id="feComposite14860" />
      <feGaussianBlur
         in="composite1"
         stdDeviation="3"
         result="blur"
         id="feGaussianBlur14862" />
      <feOffset
         dx="6"
         dy="6"
         result="offset"
         id="feOffset14864" />
      <feComposite
         in="SourceGraphic"
         in2="offset"
         operator="over"
         result="composite2"
         id="feComposite14866" />
    </filter>
    <linearGradient
       xlink:href="#linearGradient9270"
       id="linearGradient8793"
       gradientUnits="userSpaceOnUse"
       gradientTransform="translate(214.99244,-30.641489)"
       x1="30.679108"
       y1="62.193192"
       x2="179.17139"
       y2="210.68547" />
    <filter
       style="color-interpolation-filters:sRGB"
       id="filter8812"
       x="-0.12564357"
       y="-0.12564271"
       width="1.3559901"
       height="1.3559877">
      <feFlood
         flood-opacity="0.498039"
         flood-color="rgb(0,0,0)"
         result="flood"
         id="feFlood8802" />
      <feComposite
         in="flood"
         in2="SourceGraphic"
         operator="in"
         result="composite1"
         id="feComposite8804" />
      <feGaussianBlur
         in="composite1"
         stdDeviation="3"
         result="blur"
         id="feGaussianBlur8806" />
      <feOffset
         dx="6"
         dy="6"
         result="offset"
         id="feOffset8808" />
      <feComposite
         in="SourceGraphic"
         in2="offset"
         operator="over"
         result="composite2"
         id="feComposite8810" />
    </filter>
  </defs>
  <g
     id="layer1">
    <g
       id="g8839"
       transform="translate(275.16668,0.84668636)">
      <rect
         style="fill:none;fill-opacity:0.996078;stroke:none;stroke-width:0.96;stroke-miterlimit:4;stroke-dasharray:none"
         id="rect14760"
         width="240"
         height="240"
         x="-3.5742187e-06"
         y="-9.8809849e-15" />
      <g
         id="g8766"
         transform="matrix(0.99486649,0,0,0.99486649,-198.21351,14.683486)"
         style="filter:url(#filter8812)">
        <circle
           style="fill:#3a414a;fill-opacity:0.996078;stroke:none;stroke-width:1.08386"
           id="circle14116"
           cx="319.8555"
           cy="105.85995"
           r="104.99987" />
        <g
           id="g8752"
           transform="translate(0,-1.1164122e-4)">
          <path
             style="fill:url(#linearGradient14124);fill-opacity:1;stroke:none;stroke-width:0.264583"
             id="path14118"
             d="M 394.10171,31.613732 A 105,105 0 0 1 407.18987,164.1498 105,105 0 0 1 279.77379,202.90868 105,105 0 0 1 216.84148,85.534773 105,105 0 0 1 319.63896,0.86017049 L 319.8555,105.85995 Z" />
          <path
             id="path14120"
             style="fill:#ffd859;fill-opacity:1;stroke:none;stroke-width:0.42023"
             d="m 330.46201,116.27939 c -2.71449,2.71449 -6.46454,4.39343 -10.60672,4.3934 -8.28416,-2.2e-4 -14.99967,-6.71596 -14.9996,-15.00012 1.1e-4,-4.14198 1.67902,-7.891824 4.3934,-10.606203 l 40.22725,-29.522761 c 1.34465,-1.344628 3.20225,-2.176288 5.25408,-2.176272 4.10356,1.11e-4 7.43012,3.326736 7.43023,7.430373 2e-5,2.051868 -0.83163,3.909497 -2.17623,5.254173 z" />
        </g>
        <circle
           style="fill:none;fill-opacity:0.996078;stroke:#ffffff;stroke-width:1.08386"
           id="circle8712"
           cx="319.8555"
           cy="105.85995"
           r="104.99987" />
      </g>
    </g>
    <g
       id="g8791"
       transform="translate(-128.51984)">
      <rect
         style="fill:none;fill-opacity:0.996078;stroke:none;stroke-width:0.96;stroke-miterlimit:4;stroke-dasharray:none"
         id="rect8777"
         width="240"
         height="240"
         x="128.51984"
         y="-9.8809849e-15" />
      <g
         id="g8789"
         transform="matrix(0.99486649,0,0,0.99486649,-69.693674,14.683486)">
        <circle
           style="fill:#3a414a;fill-opacity:0.996078;stroke:none;stroke-width:1.08386"
           id="circle8779"
           cx="319.8555"
           cy="105.85995"
           r="104.99987" />
        <g
           id="g8785"
           transform="translate(0,-1.1164122e-4)">
          <path
             style="fill:url(#linearGradient8793);fill-opacity:1;stroke:none;stroke-width:0.264583"
             id="path8781"
             d="M 394.10171,31.613732 A 105,105 0 0 1 407.18987,164.1498 105,105 0 0 1 279.77379,202.90868 105,105 0 0 1 216.84148,85.534773 105,105 0 0 1 319.63896,0.86017049 L 319.8555,105.85995 Z" />
          <path
             id="path8783"
             style="fill:#ffd859;fill-opacity:1;stroke:none;stroke-width:0.42023"
             d="m 330.46201,116.27939 c -2.71449,2.71449 -6.46454,4.39343 -10.60672,4.3934 -8.28416,-2.2e-4 -14.99967,-6.71596 -14.9996,-15.00012 1.1e-4,-4.14198 1.67902,-7.891824 4.3934,-10.606203 l 40.22725,-29.522761 c 1.34465,-1.344628 3.20225,-2.176288 5.25408,-2.176272 4.10356,1.11e-4 7.43012,3.326736 7.43023,7.430373 2e-5,2.051868 -0.83163,3.909497 -2.17623,5.254173 z" />
        </g>
        <circle
           style="fill:none;fill-opacity:0.996078;stroke:#ffffff;stroke-width:1.08386"
           id="circle8787"
           cx="319.8555"
           cy="105.85995"
           r="104.99987" />
      </g>
    </g>
  </g>
</svg>
